<?xml version="1.0" standalone="yes"?>
<svg xmlns="http://www.w3.org/2000/svg" width="475" height="495">
<path style="fill:#010101; stroke:none;" d="M0 0L0 71L1 71C7.01809 45.6637 27.752 23.7823 38 0L0 0z"/>
<path style="fill:#f39b5b; stroke:none;" d="M38 0L32 14C27.3486 17.2536 21.0951 28.3293 21 34C16.5178 37.0908 11.1788 46.6384 11 52L9 52L3 68C0.0207615 70.5899 0.100934 76.1776 0.0146605 80C-0.270755 92.6453 6.77398 106.242 18.0355 112.511C27.0807 117.546 34.6284 114.781 44 114L44 112L46 113L46 111L51 108L55 105L57 106L63 101L69 107C74.972 119.106 90.4733 115.912 101 115L119 100L120 100C121.456 103.744 122.953 106.276 127 107C129.244 111.379 133.1 113.774 138 114C147.099 125.199 172.37 108.851 177 100L184 109L186 108C196.924 129.44 224.535 108.843 236 101L238 103C240.595 118.152 260.488 115.501 271 116L279 112L280 109C284.688 108.296 287.943 105.221 290 101C304.058 113.427 311.245 118.021 330 116L330 114C337.536 114.01 344.974 106.489 348 100L349 100C352.12 106.672 361.401 114.015 369 114L369 116L388 116L388 114C394.237 113.607 402.898 108.397 404 102L428 114C431.946 118.857 440.52 116.048 446 116L448 115L448 113C455.366 112.673 459.012 104.56 464 100L463 98C473.021 91.4259 472.257 61.9526 463 55C462.671 47.8995 454.849 33.0913 449 29L440 9L438 9C437.604 -1.9216 423.661 1 416 1L344 1L137 1L72 1C61.0242 1 48.7123 2.55042 38 0z"/>
<path style="fill:#f19959; stroke:none;" d="M39 0L39 1L435 1L400 0L319 0L39 0z"/>
<path style="fill:#010101; stroke:none;" d="M435 0C445.671 25.624 467.78 48.3549 469.816 77C471.093 94.9782 454.658 118.842 435 116.826C423.002 115.595 415.309 107.531 406 101C389.914 123.821 366.363 118.315 349 101L348 101C337.423 112.858 322.956 122.625 307 114.622C302.207 112.218 296.219 103.231 291 103.206C285.999 103.182 279.547 111.334 275 113.623C259.153 121.597 244.96 114.072 235 101L234 101C224.385 112.615 207.72 121.212 193 114.004C188.335 111.72 182.009 103.213 177 103.207C172.122 103.201 165.531 111.372 161 113.623C145.81 121.169 129.336 114.245 120 101C104.104 112.187 89.8913 124.289 71 110.239C67.4647 107.61 64.6562 104.484 62 101C54.4915 106.227 48.1362 112.601 39 115.073C21.5177 119.802 4.92203 105.504 1 89L0 89L0 495L224 495L224 494C180.344 464.544 136.82 434.88 93 405.667C72.783 392.189 44.3966 378.873 32.3125 357C19.8955 334.524 24 306.758 24 282L24 134C40.7683 134 49.2951 129.861 62 119L62 259C62 281.075 57.9384 307.412 67.3125 328C74.0246 342.742 88.0859 350.391 101 359L158 397C167.476 403.317 177.336 411.958 188 416C188 410.775 189.439 403.052 187.397 398.184C183.876 389.793 165.483 381.656 158 376.667L104 340.667C96.5498 335.7 85.2179 330.49 79.6034 323.482C76.7502 319.921 78 313.274 78 309L78 271C112.265 295.541 148.051 318.112 183 341.67C192.684 348.198 202.279 354.853 212 361.333C216.031 364.021 222.507 366.853 224.972 371.184C229.447 379.049 226 397.019 226 406L226 495L243 495L243 409L243.603 372.184L255 362.67L283 344L392 271L392 308C392 312.492 393.168 318.958 390.397 322.816C385.239 329.994 373.304 335.131 366 340C347.612 352.259 329.386 364.743 311 377C303.534 381.978 285.125 389.791 281.603 398.184C279.561 403.052 281 410.775 281 416C292.008 411.828 302.217 402.855 312 396.333L371 357C382.65 349.233 397.426 342.356 403.482 329C411.882 310.476 407 282.973 407 263L407 119C421.125 129.144 428.146 134 446 134L446 284C446 306.803 450.421 335.193 439.1 356C427.403 377.497 398.748 390.502 379 403.667C334.184 433.544 289.653 463.876 245 494L245 495L475 495L475 0L435 0z"/>
<path style="fill:#ef9f5f; stroke:none;" d="M435 1L436 2L435 1z"/>
<path style="fill:#f19959; stroke:none;" d="M435 2L436 3L435 2M36.3333 3.66666L36.6667 4.33334L36.3333 3.66666M436 3L437 4L436 3z"/>
<path style="fill:#ef9f5f; stroke:none;" d="M34 6L35 7L34 6z"/>
<path style="fill:#f19959; stroke:none;" d="M34 7L35 8L34 7M33 8L34 9L33 8M438 8L439 9L438 8M439 10L441 12L439 10z"/>
<path style="fill:#ef9f5f; stroke:none;" d="M440 10L441 11L440 10M441 12L442 13L441 12z"/>
<path style="fill:#f19959; stroke:none;" d="M31 13L32 14L31 13M442.333 14.6667L442.667 15.3333L442.333 14.6667z"/>
<path style="fill:#ef9f5f; stroke:none;" d="M29 15L30 16L29 15z"/>
<path style="fill:#f19959; stroke:none;" d="M29 16L30 17L29 16z"/>
<path style="fill:#ef9f5f; stroke:none;" d="M28 17L29 18L28 17z"/>
<path style="fill:#f19959; stroke:none;" d="M27 19L28 20L27 19M444 19L445 20L444 19M445 20L446 21L445 20z"/>
<path style="fill:#ef9f5f; stroke:none;" d="M446 21L447 22L446 21z"/>
<path style="fill:#f19959; stroke:none;" d="M446 22L447 23L446 22M447 23L448 24L447 23z"/>
<path style="fill:#ef9f5f; stroke:none;" d="M24 24L25 25L24 24z"/>
<path style="fill:#f19959; stroke:none;" d="M25 24L26 25L25 24M24 25L25 26L24 25z"/>
<path style="fill:#ef9f5f; stroke:none;" d="M23 26L24 27L23 26z"/>
<path style="fill:#f19959; stroke:none;" d="M22.3333 28.6667L22.6667 29.3333L22.3333 28.6667M449 28L450 29L449 28z"/>
<path style="fill:#ef9f5f; stroke:none;" d="M451 30L452 31L451 30z"/>
<path style="fill:#f19959; stroke:none;" d="M451 31L452 32L451 31z"/>
<path style="fill:#ef9f5f; stroke:none;" d="M452 32L453 33L452 32z"/>
<path style="fill:#f19959; stroke:none;" d="M20 33L21 34L20 33M453 34L454 35L453 34z"/>
<path style="fill:#ef9f5f; stroke:none;" d="M18 35L19 36L18 35z"/>
<path style="fill:#f19959; stroke:none;" d="M18 36L19 37L18 36M17 37L18 38L17 37M455 39L456 40L455 39M456 40L457 41L456 40M15.3333 41.6667L15.6667 42.3333L15.3333 41.6667z"/>
<path style="fill:#ef9f5f; stroke:none;" d="M457 41L458 42L457 41z"/>
<path style="fill:#f19959; stroke:none;" d="M458 43L459 44L458 43z"/>
<path style="fill:#ef9f5f; stroke:none;" d="M13 44L14 45L13 44z"/>
<path style="fill:#f19959; stroke:none;" d="M13 45L14 46L13 45M12 46L13 47L12 46M460.333 47.6667L460.667 48.3333L460.333 47.6667z"/>
<path style="fill:#ef9f5f; stroke:none;" d="M462 50L463 51L462 50z"/>
<path style="fill:#f19959; stroke:none;" d="M10 51L11 52L10 51M462 51L463 52L462 51z"/>
<path style="fill:#ef9f5f; stroke:none;" d="M463 52L464 53L463 52M8 53L9 54L8 53z"/>
<path style="fill:#f19959; stroke:none;" d="M9 53L10 54L9 53M8 54L9 55L8 54M463 54L464 55L463 54z"/>
<path style="fill:#ef9f5f; stroke:none;" d="M7 55L8 56L7 55z"/>
<path style="fill:#f19959; stroke:none;" d="M6 57L7 58L6 57z"/>
<path style="fill:#ef9f5f; stroke:none;" d="M465 57L466 58L465 57z"/>
<path style="fill:#f19959; stroke:none;" d="M466 60L467 61L466 60M4 62L5 63L4 62M3 63L4 64L3 63z"/>
<path style="fill:#ef9f5f; stroke:none;" d="M467 63L468 64L467 63z"/>
<path style="fill:#f19959; stroke:none;" d="M467 64L468 65L467 64M2 65L3 66L2 65M2 67L3 68L2 67z"/>
<path style="fill:#ef9f5f; stroke:none;" d="M468 67L469 68L468 67z"/>
<path style="fill:#f19959; stroke:none;" d="M468 69L469 70L468 69z"/>
<path style="fill:#ef9f5f; stroke:none;" d="M0 71L1 72L0 71z"/>
<path style="fill:#f19959; stroke:none;" d="M0 72L0 75L1 75L0 72M469 74L470 75L469 74M0 88L1 89L0 88M1 89L2 90L1 89M467 90L468 91L467 90M1 91L2 92L1 91z"/>
<path style="fill:#ef9f5f; stroke:none;" d="M467 92L468 93L467 92z"/>
<path style="fill:#f19959; stroke:none;" d="M2 94L3 95L2 94M466 94L467 95L466 94M3 96L4 97L3 96M465 96L466 97L465 96z"/>
<path style="fill:#ef9f5f; stroke:none;" d="M4 98L5 99L4 98z"/>
<path style="fill:#f19959; stroke:none;" d="M463 98L464 99L463 98z"/>
<path style="fill:#ef9f5f; stroke:none;" d="M464 98L465 99L464 98z"/>
<path style="fill:#f19959; stroke:none;" d="M5 99L6 100L5 99M119 100L120 101L119 100M177 100L176 102L177 100M291 100L292 101L291 100M348 100L349 101L348 100z"/>
<path style="fill:#ef9f5f; stroke:none;" d="M6 101L7 102L6 101z"/>
<path style="fill:#f19959; stroke:none;" d="M62 101L63 102L62 101z"/>
<path style="fill:#ef9f5f; stroke:none;" d="M177 101L178 102L177 101z"/>
<path style="fill:#f19959; stroke:none;" d="M235 101L236 102L235 101z"/>
<path style="fill:#ef9f5f; stroke:none;" d="M290 101L291 102L290 101z"/>
<path style="fill:#f19959; stroke:none;" d="M461 101L462 102L461 101M63 102L64 103L63 102z"/>
<path style="fill:#ef9f5f; stroke:none;" d="M120 102L121 103L120 102M178 102L179 103L178 102z"/>
<path style="fill:#f19959; stroke:none;" d="M404 102L405 103L404 102z"/>
<path style="fill:#ef9f5f; stroke:none;" d="M405 102L406 103L405 102M461 102L462 103L461 102M63 103L64 104L63 103M121 103L122 104L121 103M232 103L233 104L232 103M236 103L237 104L236 103z"/>
<path style="fill:#f19959; stroke:none;" d="M237 103L238 104L237 103M293 103L294 104L293 103M57 104L58 105L57 104z"/>
<path style="fill:#ef9f5f; stroke:none;" d="M64 104L65 105L64 104M231 104L232 105L231 104z"/>
<path style="fill:#f19959; stroke:none;" d="M410 104L411 105L410 104M459 104L460 105L459 104M55 105L56 106L55 105z"/>
<path style="fill:#ef9f5f; stroke:none;" d="M344 105L345 106L344 105M10 106L11 107L10 106M55 106L56 107L55 106z"/>
<path style="fill:#f19959; stroke:none;" d="M182 106L183 107L182 106M228 106L229 107L228 106z"/>
<path style="fill:#ef9f5f; stroke:none;" d="M285 106L286 107L285 106M343 106L344 107L343 106M412 106L413 107L412 106M458 106L459 107L458 106M11 107L12 108L11 107z"/>
<path style="fill:#f19959; stroke:none;" d="M53 107L54 108L53 107M68 107L69 108L68 107M126 107L127 108L126 107M170 107L171 108L170 107M227 107L228 108L227 107z"/>
<path style="fill:#ef9f5f; stroke:none;" d="M284 107L285 108L284 107M413 107L414 108L413 107M457 107L458 108L457 107M12 108L13 109L12 108z"/>
<path style="fill:#f19959; stroke:none;" d="M13 108L14 109L13 108M51 108L52 109L51 108z"/>
<path style="fill:#ef9f5f; stroke:none;" d="M68 108L69 109L68 108M111 108L112 109L111 108M126 108L127 109L126 108M169 108L170 109L169 108z"/>
<path style="fill:#f19959; stroke:none;" d="M185 108L186 109L185 108z"/>
<path style="fill:#ef9f5f; stroke:none;" d="M356 108L357 109L356 108M456 108L457 109L456 108M51 109L52 110L51 109M69 109L70 110L69 109z"/>
<path style="fill:#f19959; stroke:none;" d="M70 109L71 110L70 109M109 109L110 110L109 109z"/>
<path style="fill:#ef9f5f; stroke:none;" d="M127 109L128 110L127 109M185 109L186 110L185 109z"/>
<path style="fill:#f19959; stroke:none;" d="M280 109L279 111L280 109M358 109L359 110L358 109z"/>
<path style="fill:#ef9f5f; stroke:none;" d="M398 109L399 110L398 109z"/>
<path style="fill:#f19959; stroke:none;" d="M416 109L417 110L416 109z"/>
<path style="fill:#ef9f5f; stroke:none;" d="M455 109L456 110L455 109z"/>
<path style="fill:#f19959; stroke:none;" d="M107.667 110.333L108.333 110.667L107.667 110.333M166 110L167 111L166 110M187 110L188 111L187 110M222 110L223 111L222 110z"/>
<path style="fill:#ef9f5f; stroke:none;" d="M280 110L281 111L280 110z"/>
<path style="fill:#f19959; stroke:none;" d="M300 110L301 111L300 110M396 110L397 111L396 110M46 111L47 112L46 111M105.667 111.333L106.333 111.667L105.667 111.333M130 111L131 112L130 111M221 111L222 112L221 111z"/>
<path style="fill:#ef9f5f; stroke:none;" d="M244 111L245 112L244 111z"/>
<path style="fill:#f19959; stroke:none;" d="M277 111L276 113L277 111M301 111L302 112L301 111z"/>
<path style="fill:#ef9f5f; stroke:none;" d="M337 111L338 112L337 111z"/>
<path style="fill:#f19959; stroke:none;" d="M361 111L362 112L361 111M419 111L420 112L419 111M44 112L45 113L44 112M74 112L75 113L74 112M104 112L105 113L104 112M162 112L163 113L162 112z"/>
<path style="fill:#ef9f5f; stroke:none;" d="M163 112L164 113L163 112M220 112L221 113L220 112z"/>
<path style="fill:#f19959; stroke:none;" d="M246 112L247 113L246 112z"/>
<path style="fill:#ef9f5f; stroke:none;" d="M277 112L278 113L277 112M362 112L363 113L362 112z"/>
<path style="fill:#f19959; stroke:none;" d="M393 112L394 113L393 112z"/>
<path style="fill:#ef9f5f; stroke:none;" d="M19 113L20 114L19 113z"/>
<path style="fill:#f19959; stroke:none;" d="M20 113L21 114L20 113M42 113L43 114L42 113M75 113L76 114L75 113M101.667 113.333L102.333 113.667L101.667 113.333z"/>
<path style="fill:#ef9f5f; stroke:none;" d="M103 113L104 114L103 113M133 113L134 114L133 113z"/>
<path style="fill:#f19959; stroke:none;" d="M134 113L135 114L134 113M160 113L161 114L160 113z"/>
<path style="fill:#ef9f5f; stroke:none;" d="M161 113L162 114L161 113M191 113L192 114L191 113z"/>
<path style="fill:#f19959; stroke:none;" d="M192 113L193 114L192 113M217.667 113.333L218.333 113.667L217.667 113.333z"/>
<path style="fill:#ef9f5f; stroke:none;" d="M247 113L248 114L247 113z"/>
<path style="fill:#f19959; stroke:none;" d="M248 113L249 114L248 113M274 113L275 114L274 113z"/>
<path style="fill:#ef9f5f; stroke:none;" d="M275 113L276 114L275 113z"/>
<path style="fill:#f19959; stroke:none;" d="M304.667 113.333L305.333 113.667L304.667 113.333M364 113L365 114L364 113M391 113L392 114L391 113z"/>
<path style="fill:#ef9f5f; stroke:none;" d="M392 113L393 114L392 113z"/>
<path style="fill:#f19959; stroke:none;" d="M424 113L425 114L424 113M448 113L449 114L448 113M23 114L24 115L23 114M39 114L40 115L39 114z"/>
<path style="fill:#ef9f5f; stroke:none;" d="M41 114L42 115L41 114z"/>
<path style="fill:#f19959; stroke:none;" d="M77 114L77 115L80 115L77 114M99 114L100 115L99 114z"/>
<path style="fill:#ef9f5f; stroke:none;" d="M135 114L136 115L135 114z"/>
<path style="fill:#f19959; stroke:none;" d="M137 114L138 115L137 114z"/>
<path style="fill:#ef9f5f; stroke:none;" d="M159 114L160 115L159 114M193 114L194 115L193 114z"/>
<path style="fill:#f19959; stroke:none;" d="M214 114L215 115L214 114M249 114L250 115L249 114M271 114L272 115L271 114z"/>
<path style="fill:#ef9f5f; stroke:none;" d="M273 114L274 115L273 114z"/>
<path style="fill:#f19959; stroke:none;" d="M330 114L331 115L330 114z"/>
<path style="fill:#ef9f5f; stroke:none;" d="M332 114L333 115L332 114M366 114L367 115L366 114z"/>
<path style="fill:#f19959; stroke:none;" d="M368 114L369 115L368 114M388 114L389 115L388 114z"/>
<path style="fill:#ef9f5f; stroke:none;" d="M390 114L391 115L390 114z"/>
<path style="fill:#f19959; stroke:none;" d="M425 114L426 115L425 114M427 114L428 115L427 114M446 114L447 115L446 114M26.6667 115.333L27.3333 115.667L26.6667 115.333M29 115L30 116L29 115M80 115L81 116L80 115M82 115L83 116L82 115M95 115L96 116L95 115z"/>
<path style="fill:#ef9f5f; stroke:none;" d="M98 115L99 116L98 115z"/>
<path style="fill:#f19959; stroke:none;" d="M154 115L155 116L154 115M156 115L157 116L156 115M196 115L197 116L196 115M198.667 115.333L199.333 115.667L198.667 115.333M212 115L213 116L212 115z"/>
<path style="fill:#ef9f5f; stroke:none;" d="M213 115L214 116L213 115M251 115L252 116L251 115z"/>
<path style="fill:#f19959; stroke:none;" d="M253 115L254 116L253 115M268 115L269 116L268 115M308 115L309 116L308 115M328 115L329 116L328 115M370 115L371 116L370 115M386 115L387 116L386 115M443 115L444 116L443 115z"/>
<path style="fill:#ef9f5f; stroke:none;" d="M83 116L84 117L83 116z"/>
<path style="fill:#f19959; stroke:none;" d="M86.6667 116.333L87.3333 116.667L86.6667 116.333M90 116L90 117L93 117L90 116M94 116L95 117L94 116M144 116L144 117L147 117L144 116M149 116L149 117L152 117L149 116M203.667 116.333L204.333 116.667L203.667 116.333M256.667 116.333L257.333 116.667L256.667 116.333M265 116L265 117L268 117L265 116M311 116L312 117L311 116z"/>
<path style="fill:#ef9f5f; stroke:none;" d="M327 116L328 117L327 116z"/>
<path style="fill:#f19959; stroke:none;" d="M374 116L374 117L377 117L374 116M380.667 116.333L381.333 116.667L380.667 116.333M434 116L434 117L437 117L434 116M439.667 116.333L440.333 116.667L439.667 116.333z"/>
<path style="fill:#ef9f5f; stroke:none;" d="M442 116L443 117L442 116z"/>
<path style="fill:#f19959; stroke:none;" d="M317 117L317 118L321 118L317 117z"/>
<path style="fill:#ffffff; stroke:none;" d="M60 119C51.0875 131.39 38.2402 134 24 134L24 278C24 300.849 19.7387 328.423 28.4529 350C37.8464 373.259 61.1129 385.069 81 398.333C114.099 420.41 146.899 442.932 180 465C194.358 474.572 209.908 488.901 226 495L226 408L225.397 371.184L215 362.667L189 345.141L118 297.333L78 271L78 309C78 313.362 76.5896 320.672 79.6034 324.24C85.7118 331.472 97.1441 336.763 105 342L158 377.333C165.987 382.658 182.197 389.792 186.972 398.184C189.554 402.722 188 410.913 188 416C160.306 400.582 134.381 380.587 108 363C94.4158 353.944 77.6867 345.645 69.338 331C57.844 310.838 62 284.293 62 262L62 119L60 119M407 119L407 266C407 285.225 411.991 312.614 402.482 330C394.846 343.961 377.826 351.783 365 360.333C337.3 378.8 310.078 399.811 281 416C281 410.913 279.446 402.722 282.028 398.184C286.809 389.782 303.021 382.986 311 377.667C329.387 365.409 347.612 352.925 366 340.667C373.324 335.784 385.058 330.722 390.397 323.674C393.345 319.783 392 312.605 392 308L392 271C377.84 276.367 364.441 288.4 352 296.975C328.869 312.917 305.373 328.418 282 344L255 362.001C251.45 364.379 245.405 367.237 243.603 371.325C239.576 380.462 243 398.013 243 408L243 495C259.649 488.69 275.204 474.197 290 464.333C323.104 442.264 355.897 419.735 389 397.667C407.044 385.638 432.223 374.048 440.982 353C450.226 330.787 446 302.552 446 279L446 134L423 130.507L407 119z"/>
</svg>
